<svg width="1721" height="1117" viewBox="0 0 1721 1117" fill="none" xmlns="http://www.w3.org/2000/svg">
    <path opacity="0.91" d="M9.5 713.478L64.8391 664.303C95.829 636.765 139.202 642.822 163.414 678.069L108.075 727.244C77.0849 754.782 33.712 748.725 9.5 713.478Z" fill="#328118"/>
    <path opacity="0.9" d="M31.1099 107.533L81.8152 53.7547C110.21 23.6385 153.325 25.351 179.804 57.6466L129.099 111.425C100.704 141.541 57.5886 139.829 31.1099 107.533Z" fill="#328118"/>
    <path opacity="0.97" d="M285.312 689.645L358.283 670.484C399.147 659.754 438.667 687.841 448.101 734.318L375.13 753.479C334.266 764.209 294.747 736.122 285.312 689.645Z" fill="#328118"/>
    <path opacity="0.97" d="M261.562 343.885L334.533 324.724C375.397 313.994 414.917 342.081 424.351 388.558L351.38 407.719C310.516 418.449 270.997 390.362 261.562 343.885Z" fill="#328118"/>
    <path opacity="0.88" d="M565.913 896.294L608.677 836.231C632.625 802.595 674.678 797.568 704.251 824.806L661.487 884.869C637.539 918.505 595.486 923.532 565.913 896.294Z" fill="#328118"/>
    <g opacity="0.48" filter="url(#filter0_f_25_151)">
        <path d="M1205.33 457.833L1176.71 485.141C1160.69 500.433 1137.53 498.129 1124.09 479.905L1152.7 452.597C1168.73 437.304 1191.88 439.608 1205.33 457.833Z" fill="#328118"/>
    </g>
    <g opacity="0.37" filter="url(#filter1_f_25_151)">
        <path d="M1458.47 1033.98L1456.97 1066.7C1456.12 1085.02 1442.8 1098.67 1426.69 1097.71L1428.2 1064.99C1429.04 1046.67 1442.36 1033.02 1458.47 1033.98Z" fill="#328118"/>
    </g>
    <g opacity="0.51" filter="url(#filter2_f_25_151)">
        <path d="M1173.04 901.644L1138.62 923.345C1119.35 935.497 1095.81 927.82 1085.12 905.896L1119.54 884.195C1138.82 872.043 1162.36 879.72 1173.04 901.644Z" fill="#328118"/>
    </g>
    <path opacity="0.88" d="M556.413 504.613L599.177 444.549C623.125 410.914 665.178 405.887 694.751 433.124L651.987 493.188C628.039 526.824 585.986 531.851 556.413 504.613Z" fill="#328118"/>
    <g opacity="0.36" filter="url(#filter3_f_25_151)">
        <path d="M1511.29 450.331V482.375C1511.29 500.32 1498.9 514.42 1483.12 514.42V482.375C1483.12 464.43 1495.52 450.331 1511.29 450.331Z" fill="#328118"/>
    </g>
    <path opacity="0.7" d="M883.539 1106.5L850.975 1057.35C832.74 1029.83 837.426 991.905 861.625 971.164L894.189 1020.31C912.425 1047.84 907.739 1085.76 883.539 1106.5Z" fill="#328118"/>
    <path opacity="0.97" d="M301.905 1047.9L374.306 1027.37C414.85 1015.88 454.649 1043.07 464.758 1089.19L392.358 1109.72C351.813 1121.22 312.014 1094.02 301.905 1047.9Z" fill="#328118"/>
    <g opacity="0.38" filter="url(#filter4_f_25_151)">
        <path d="M1749.38 273.197L1744.71 306.75C1742.09 325.539 1727.06 337.964 1710.53 334.988L1715.21 301.435C1717.82 282.646 1732.86 270.221 1749.38 273.197Z" fill="#328118"/>
    </g>
    <path opacity="0.73" d="M818.765 270.712L796.608 211.344C784.2 178.098 797.418 140.888 826.649 126.776L848.806 186.144C861.214 219.39 847.995 256.6 818.765 270.712Z" fill="#328118"/>
    <g opacity="0.35" filter="url(#filter5_f_25_151)">
        <path d="M1462.76 109.646L1465.6 140.401C1467.19 157.625 1456.55 172.579 1441.4 174.39L1438.56 143.634C1436.97 126.411 1447.62 111.456 1462.76 109.646Z" fill="#328118"/>
    </g>
    <g opacity="0.38" filter="url(#filter6_f_25_151)">
        <path d="M1399.03 724.016L1395.44 757.241C1393.43 775.847 1379 788.671 1362.64 786.387L1366.23 753.161C1368.23 734.555 1382.67 721.731 1399.03 724.016Z" fill="#328118"/>
    </g>
    <path opacity="0.95" d="M389.549 77.3038L458.635 48.7045C497.323 32.6889 538.784 54.6786 552.866 98.6812L483.78 127.281C445.092 143.296 403.63 121.306 389.549 77.3038Z" fill="#328118"/>
    <g opacity="0.46" filter="url(#filter7_f_25_151)">
        <path d="M1173.08 111.198L1149.67 141.822C1136.56 158.971 1114.42 160.732 1099.34 145.825L1122.74 115.201C1135.85 98.0518 1158 96.2906 1173.08 111.198Z" fill="#328118"/>
    </g>
    <path opacity="0.91" d="M19 1018.72L74.3391 969.544C105.329 942.007 148.702 948.064 172.914 983.311L117.575 1032.49C86.5849 1060.02 43.212 1053.97 19 1018.72Z" fill="#328118"/>
    <path opacity="0.91" d="M0 410.938L55.3391 361.763C86.329 334.225 129.702 340.283 153.914 375.529L98.5748 424.704C67.5849 452.242 24.212 446.185 0 410.938Z" fill="#328118"/>
    <g opacity="0.38" filter="url(#filter8_f_25_151)">
        <path d="M1726.25 748.046L1723.18 781.258C1721.46 799.856 1707.27 812.934 1690.91 810.979L1693.98 777.767C1695.7 759.169 1709.9 746.091 1726.25 748.046Z" fill="#328118"/>
    </g>
    <path opacity="0.67" d="M923.43 684.666L882.858 648.614C860.138 628.424 856.234 592.258 873.985 566.417L914.556 602.469C937.276 622.658 941.181 658.825 923.43 684.666Z" fill="#328118"/>
    <defs>
        <filter id="filter0_f_25_151" x="1122.83" y="441.229" width="83.7537" height="55.2796" filterUnits="userSpaceOnUse" color-interpolation-filters="sRGB">
            <feFlood flood-opacity="0" result="BackgroundImageFix"/>
            <feBlend mode="normal" in="SourceGraphic" in2="BackgroundImageFix" result="shape"/>
            <feGaussianBlur stdDeviation="0.629094" result="effect1_foregroundBlur_25_151"/>
        </filter>
        <filter id="filter1_f_25_151" x="1424.75" y="1032" width="35.6635" height="67.6997" filterUnits="userSpaceOnUse" color-interpolation-filters="sRGB">
            <feFlood flood-opacity="0" result="BackgroundImageFix"/>
            <feBlend mode="normal" in="SourceGraphic" in2="BackgroundImageFix" result="shape"/>
            <feGaussianBlur stdDeviation="0.970329" result="effect1_foregroundBlur_25_151"/>
        </filter>
        <filter id="filter2_f_25_151" x="1083.79" y="877.112" width="90.5742" height="53.3164" filterUnits="userSpaceOnUse" color-interpolation-filters="sRGB">
            <feFlood flood-opacity="0" result="BackgroundImageFix"/>
            <feBlend mode="normal" in="SourceGraphic" in2="BackgroundImageFix" result="shape"/>
            <feGaussianBlur stdDeviation="0.662832" result="effect1_foregroundBlur_25_151"/>
        </filter>
        <filter id="filter3_f_25_151" x="1481.22" y="448.433" width="31.9699" height="67.8851" filterUnits="userSpaceOnUse" color-interpolation-filters="sRGB">
            <feFlood flood-opacity="0" result="BackgroundImageFix"/>
            <feBlend mode="normal" in="SourceGraphic" in2="BackgroundImageFix" result="shape"/>
            <feGaussianBlur stdDeviation="0.949026" result="effect1_foregroundBlur_25_151"/>
        </filter>
        <filter id="filter4_f_25_151" x="1708.52" y="270.745" width="42.869" height="66.695" filterUnits="userSpaceOnUse" color-interpolation-filters="sRGB">
            <feFlood flood-opacity="0" result="BackgroundImageFix"/>
            <feBlend mode="normal" in="SourceGraphic" in2="BackgroundImageFix" result="shape"/>
            <feGaussianBlur stdDeviation="1.00608" result="effect1_foregroundBlur_25_151"/>
        </filter>
        <filter id="filter5_f_25_151" x="1436.57" y="107.814" width="31.02" height="68.4077" filterUnits="userSpaceOnUse" color-interpolation-filters="sRGB">
            <feFlood flood-opacity="0" result="BackgroundImageFix"/>
            <feBlend mode="normal" in="SourceGraphic" in2="BackgroundImageFix" result="shape"/>
            <feGaussianBlur stdDeviation="0.915879" result="effect1_foregroundBlur_25_151"/>
        </filter>
        <filter id="filter6_f_25_151" x="1360.66" y="721.769" width="40.3523" height="66.8635" filterUnits="userSpaceOnUse" color-interpolation-filters="sRGB">
            <feFlood flood-opacity="0" result="BackgroundImageFix"/>
            <feBlend mode="normal" in="SourceGraphic" in2="BackgroundImageFix" result="shape"/>
            <feGaussianBlur stdDeviation="0.991393" result="effect1_foregroundBlur_25_151"/>
        </filter>
        <filter id="filter7_f_25_151" x="1098.14" y="99.8796" width="76.1388" height="57.2635" filterUnits="userSpaceOnUse" color-interpolation-filters="sRGB">
            <feFlood flood-opacity="0" result="BackgroundImageFix"/>
            <feBlend mode="normal" in="SourceGraphic" in2="BackgroundImageFix" result="shape"/>
            <feGaussianBlur stdDeviation="0.600856" result="effect1_foregroundBlur_25_151"/>
        </filter>
        <filter id="filter8_f_25_151" x="1688.94" y="745.875" width="39.2949" height="67.2756" filterUnits="userSpaceOnUse" color-interpolation-filters="sRGB">
            <feFlood flood-opacity="0" result="BackgroundImageFix"/>
            <feBlend mode="normal" in="SourceGraphic" in2="BackgroundImageFix" result="shape"/>
            <feGaussianBlur stdDeviation="0.989016" result="effect1_foregroundBlur_25_151"/>
        </filter>
    </defs>
</svg>
