<svg width="1728" height="1117" viewBox="0 0 1728 1117" fill="none" xmlns="http://www.w3.org/2000/svg">
    <path d="M-618.692 42.0766C-568.156 24.8665 -478.754 7.26199 -376.121 -40.5322C-273.489 -88.3263 -239.423 -152.103 -126.057 -187.335C-12.6899 -222.567 54.1855 -175.789 168.039 -209.646C281.892 -243.503 306.446 -316.384 420.438 -349.847C534.431 -383.311 603.919 -329.145 715.201 -370.272C826.483 -411.398 842.962 -507.111 954.592 -547.255C1066.22 -587.399 1138.63 -524.981 1251.02 -562.964C1363.42 -600.946 1443.44 -694.862 1494.08 -729.572M-58.6387 1625.58C-8.10322 1608.37 81.2994 1590.77 183.932 1542.97C286.564 1495.18 320.63 1431.4 433.996 1396.17C547.363 1360.94 614.239 1407.72 728.092 1373.86C841.945 1340 866.499 1267.12 980.491 1233.66C1094.48 1200.2 1163.97 1254.36 1275.25 1213.23C1386.54 1172.11 1403.02 1076.4 1514.64 1036.25C1626.27 996.108 1698.68 1058.53 1811.07 1020.54C1923.47 982.56 2003.5 888.644 2054.13 853.934M-82.9889 1556.74C-32.4534 1539.52 56.9492 1521.92 159.582 1474.13C262.214 1426.33 296.28 1362.56 409.646 1327.32C523.013 1292.09 589.888 1338.87 703.742 1305.01C817.595 1271.16 842.149 1198.27 956.141 1164.81C1070.13 1131.35 1139.62 1185.51 1250.9 1144.39C1362.19 1103.26 1378.67 1007.55 1490.29 967.404C1601.92 927.26 1674.33 989.678 1786.72 951.695C1899.12 913.712 1979.15 819.796 2029.78 785.086M-107.339 1487.89C-56.8035 1470.68 32.5991 1453.07 135.231 1405.28C237.864 1357.48 271.93 1293.71 385.296 1258.48C498.663 1223.24 565.538 1270.02 679.391 1236.16C793.245 1202.31 817.799 1129.43 931.791 1095.96C1045.78 1062.5 1115.27 1116.67 1226.55 1075.54C1337.84 1034.41 1354.31 938.7 1465.94 898.556C1577.57 858.411 1649.98 920.83 1762.37 882.847C1874.77 844.864 1954.8 750.948 2005.43 716.238M-131.689 1419.04C-81.1536 1401.83 8.24895 1384.22 110.881 1336.43C213.514 1288.64 247.579 1224.86 360.946 1189.63C474.313 1154.39 541.188 1201.17 655.041 1167.32C768.894 1133.46 793.449 1060.58 907.441 1027.11C1021.43 993.651 1090.92 1047.82 1202.2 1006.69C1313.49 965.564 1329.96 869.852 1441.59 829.707C1553.22 789.563 1625.63 851.981 1738.02 813.999C1850.42 776.016 1930.45 682.1 1981.08 647.39M-156.039 1350.19C-105.504 1332.98 -16.1012 1315.38 86.5312 1267.58C189.163 1219.79 223.229 1156.01 336.596 1120.78C449.963 1085.55 516.838 1132.32 630.691 1098.47C744.544 1064.61 769.099 991.731 883.091 958.267C997.083 924.803 1066.57 978.969 1177.85 937.843C1289.14 896.716 1305.61 801.004 1417.24 760.859C1528.87 720.715 1601.28 783.133 1713.67 745.151C1826.07 707.168 1906.1 613.252 1956.73 578.542M-180.389 1281.34C-129.854 1264.13 -40.4513 1246.53 62.181 1198.73C164.813 1150.94 198.879 1087.16 312.246 1051.93C425.612 1016.7 492.488 1063.48 606.341 1029.62C720.194 995.763 744.749 922.882 858.741 889.419C972.733 855.955 1042.22 910.121 1153.5 868.994C1264.78 827.868 1281.26 732.155 1392.89 692.011C1504.52 651.867 1576.93 714.285 1689.32 676.303C1801.72 638.32 1881.75 544.404 1932.38 509.694M-204.74 1212.49C-154.204 1195.28 -64.8015 1177.68 37.8309 1129.89C140.463 1082.09 174.529 1018.31 287.896 983.083C401.262 947.851 468.138 994.629 581.991 960.772C695.844 926.915 720.399 854.034 834.391 820.571C948.383 787.107 1017.87 841.273 1129.15 800.146C1240.43 759.02 1256.91 663.307 1368.54 623.163C1480.17 583.019 1552.58 645.437 1664.97 607.454C1777.37 569.472 1857.4 475.556 1908.03 440.846M-229.09 1143.65C-178.554 1126.44 -89.1516 1108.83 13.4807 1061.04C116.113 1013.24 150.179 949.467 263.546 914.235C376.912 879.003 443.788 925.781 557.641 891.924C671.494 858.067 696.048 785.186 810.041 751.723C924.033 718.259 993.521 772.425 1104.8 731.298C1216.08 690.172 1232.56 594.459 1344.19 554.315C1455.82 514.171 1528.23 576.589 1640.62 538.606C1753.02 500.623 1833.05 406.708 1883.68 371.998M-253.44 1074.8C-202.904 1057.59 -113.502 1039.98 -10.8694 992.189C91.7629 944.395 125.829 880.618 239.195 845.386C352.562 810.154 419.438 856.932 533.291 823.076C647.144 789.219 671.698 716.338 785.69 682.875C899.683 649.411 969.171 703.577 1080.45 662.45C1191.73 621.324 1208.21 525.611 1319.84 485.467C1431.47 445.323 1503.88 507.741 1616.27 469.758C1728.67 431.775 1808.7 337.86 1859.33 303.149M-277.79 1005.95C-227.254 988.74 -137.852 971.136 -35.2195 923.341C67.4129 875.547 101.479 811.77 214.845 776.538C328.212 741.306 395.087 788.084 508.94 754.228C622.794 720.371 647.348 647.49 761.34 614.026C875.332 580.563 944.821 634.729 1056.1 593.602C1167.38 552.475 1183.86 456.763 1295.49 416.619C1407.12 376.475 1479.53 438.893 1591.92 400.91C1704.32 362.927 1784.35 269.011 1834.98 234.301M-302.14 937.102C-251.605 919.892 -162.202 902.287 -59.5696 854.493C43.0627 806.699 77.1285 742.922 190.495 707.69C303.862 672.458 370.737 719.236 484.59 685.38C598.443 651.523 622.998 578.642 736.99 545.178C850.982 511.715 920.471 565.88 1031.75 524.754C1143.03 483.627 1159.51 387.915 1271.14 347.771C1382.77 307.627 1455.18 370.045 1567.57 332.062C1679.97 294.079 1760 200.163 1810.63 165.453M-326.49 868.254C-275.955 851.044 -186.552 833.439 -83.9198 785.645C18.7126 737.851 52.7783 674.074 166.145 638.842C279.512 603.61 346.387 650.388 460.24 616.531C574.093 582.675 598.648 509.794 712.64 476.33C826.632 442.866 896.12 497.032 1007.4 455.906C1118.68 414.779 1135.16 319.067 1246.79 278.923C1358.42 238.778 1430.83 301.197 1543.22 263.214C1655.62 225.231 1735.65 131.315 1786.28 96.605M-350.84 799.406C-300.305 782.196 -210.902 764.591 -108.27 716.797C-5.63757 669.003 28.4282 605.226 141.795 569.994C255.162 534.762 322.037 581.54 435.89 547.683C549.743 513.827 574.298 440.946 688.29 407.482C802.282 374.018 871.77 428.184 983.052 387.058C1094.33 345.931 1110.81 250.219 1222.44 210.074C1334.07 169.93 1406.48 232.349 1518.87 194.366C1631.27 156.383 1711.3 62.4671 1761.93 27.7569M-375.19 730.558C-324.655 713.348 -235.252 695.743 -132.62 647.949C-29.9877 600.155 4.07807 536.378 117.445 501.146C230.811 465.914 297.687 512.692 411.54 478.835C525.393 444.979 549.948 372.098 663.94 338.634C777.932 305.17 847.42 359.336 958.702 318.21C1069.98 277.083 1086.46 181.371 1198.09 141.226C1309.72 101.082 1382.13 163.5 1494.52 125.518C1606.92 87.5347 1686.95 -6.38104 1737.58 -41.0912M-399.541 661.71C-349.005 644.499 -259.602 626.895 -156.97 579.101C-54.3378 531.307 -20.2721 467.53 93.0946 432.298C206.461 397.066 273.337 443.844 387.19 409.987C501.043 376.13 525.597 303.249 639.59 269.786C753.582 236.322 823.07 290.488 934.352 249.361C1045.63 208.235 1062.11 112.522 1173.74 72.3782C1285.37 32.2341 1357.78 94.6523 1470.17 56.6695C1582.57 18.6867 1662.6 -75.2292 1713.23 -109.939M-423.891 592.862C-373.355 575.651 -283.953 558.047 -181.32 510.253C-78.688 462.459 -44.6222 398.682 68.7445 363.45C182.111 328.218 248.987 374.996 362.84 341.139C476.693 307.282 501.247 234.401 615.239 200.938C729.232 167.474 798.72 221.64 910.002 180.513C1021.28 139.387 1037.76 43.6743 1149.39 3.53012C1261.02 -36.614 1333.43 25.8042 1445.82 -12.1786C1558.22 -50.1614 1638.25 -144.077 1688.88 -178.787M-448.241 524.013C-397.705 506.803 -308.303 489.199 -205.67 441.405C-103.038 393.61 -68.9723 329.834 44.3943 294.602C157.761 259.369 224.636 306.147 338.49 272.291C452.343 238.434 476.897 165.553 590.889 132.09C704.881 98.6259 774.37 152.792 885.652 111.665C996.934 70.5386 1013.41 -25.1738 1125.04 -65.3179C1236.67 -105.462 1309.08 -43.0439 1421.47 -81.0267C1533.87 -119.01 1613.9 -212.925 1664.53 -247.636M-472.591 455.165C-422.055 437.955 -332.653 420.351 -230.021 372.557C-127.388 324.762 -93.3225 260.985 20.0442 225.753C133.411 190.521 200.286 237.299 314.139 203.443C427.993 169.586 452.547 96.7052 566.539 63.2415C680.531 29.7778 750.02 83.9436 861.301 42.8171C972.583 1.69048 989.063 -94.0219 1100.69 -134.166C1212.32 -174.31 1284.73 -111.892 1397.12 -149.875C1509.52 -187.858 1589.55 -281.773 1640.18 -316.484M-496.941 386.317C-446.406 369.107 -357.003 351.503 -254.371 303.708C-151.738 255.914 -117.673 192.137 -4.30592 156.905C109.061 121.673 175.936 168.451 289.789 134.595C403.642 100.738 428.197 27.857 542.189 -5.60663C656.181 -39.0703 725.669 15.0955 836.951 -26.031C948.233 -67.1576 964.713 -162.87 1076.34 -203.014C1187.97 -243.158 1260.38 -180.74 1372.77 -218.723C1485.17 -256.706 1565.19 -350.622 1615.83 -385.332M-521.291 317.469C-470.756 300.259 -381.353 282.654 -278.721 234.86C-176.088 187.066 -142.023 123.289 -28.6561 88.0572C84.7106 52.8251 151.586 99.6032 265.439 65.7465C379.292 31.8899 403.847 -40.9911 517.839 -74.4548C631.831 -107.918 701.319 -53.7526 812.601 -94.8791C923.883 -136.006 940.363 -231.718 1051.99 -271.862C1163.62 -312.006 1236.03 -249.588 1348.42 -287.571C1460.82 -325.554 1540.84 -419.47 1591.48 -454.18M-545.641 248.621C-495.106 231.411 -405.703 213.806 -303.071 166.012C-200.439 118.218 -166.373 54.4411 -53.0062 19.209C60.3605 -16.023 127.236 30.755 241.089 -3.1016C354.942 -36.9583 379.497 -109.839 493.489 -143.303C607.481 -176.767 676.969 -122.601 788.251 -163.727C899.533 -204.854 916.013 -300.566 1027.64 -340.71C1139.27 -380.855 1211.68 -318.436 1324.07 -356.419C1436.47 -394.402 1516.49 -488.318 1567.13 -523.028M-569.992 179.773C-519.456 162.563 -430.053 144.958 -327.421 97.1641C-224.789 49.3699 -190.723 -14.407 -77.3563 -49.6391C36.0103 -84.8711 102.886 -38.0931 216.739 -71.9497C330.592 -105.806 355.147 -178.687 469.139 -212.151C583.131 -245.615 652.619 -191.449 763.901 -232.575C875.183 -273.702 891.662 -369.414 1003.29 -409.559C1114.92 -449.703 1187.33 -387.284 1299.72 -425.267C1412.12 -463.25 1492.14 -557.166 1542.78 -591.876M-594.342 110.925C-543.806 93.7146 -454.404 76.1101 -351.771 28.316C-249.139 -19.4782 -215.073 -83.2551 -101.706 -118.487C11.6602 -153.719 78.5356 -106.941 192.389 -140.798C306.242 -174.654 330.796 -247.535 444.789 -280.999C558.781 -314.463 628.269 -260.297 739.551 -301.424C850.833 -342.55 867.312 -438.263 978.942 -478.407C1090.57 -518.551 1162.98 -456.133 1275.37 -494.115C1387.77 -532.098 1467.79 -626.014 1518.43 -660.724" stroke="url(#paint0_linear_25_318)" stroke-width="6" stroke-linecap="round"/>
    <defs>
        <linearGradient id="paint0_linear_25_318" x1="5.50002" y1="1118" x2="978" y2="228" gradientUnits="userSpaceOnUse">
            <stop stop-color="#F86060"/>
            <stop offset="1" stop-color="#F86060" stop-opacity="0.16"/>
        </linearGradient>
    </defs>
</svg>
